<?xml version="1.0" encoding="UTF-8" standalone="no"?>
<!-- Created with Inkscape (http://www.inkscape.org/) -->
<svg
   xmlns:dc="http://purl.org/dc/elements/1.1/"
   xmlns:cc="http://web.resource.org/cc/"
   xmlns:rdf="http://www.w3.org/1999/02/22-rdf-syntax-ns#"
   xmlns:svg="http://www.w3.org/2000/svg"
   xmlns="http://www.w3.org/2000/svg"
   xmlns:sodipodi="http://inkscape.sourceforge.net/DTD/sodipodi-0.dtd"
   xmlns:inkscape="http://www.inkscape.org/namespaces/inkscape"
   id="svg2"
   sodipodi:version="0.32"
   inkscape:version="0.43"
   width="670pt"
   height="500pt"
   sodipodi:docbase="C:\Documents and Settings\Owner\Desktop\SVG"
   sodipodi:docname="Air conditioner.svg"
   version="1.0">
  <metadata
     id="metadata7">
    <rdf:RDF>
      <cc:Work
         rdf:about="">
        <dc:format>image/svg+xml</dc:format>
        <dc:type
           rdf:resource="http://purl.org/dc/dcmitype/StillImage" />
      </cc:Work>
    </rdf:RDF>
  </metadata>
  <defs
     id="defs5" />
  <sodipodi:namedview
     inkscape:window-height="543"
     inkscape:window-width="756"
     inkscape:pageshadow="2"
     inkscape:pageopacity="0.0"
     borderopacity="1.0"
     bordercolor="#666666"
     pagecolor="#ffffff"
     id="base"
     inkscape:zoom="0.5410123"
     inkscape:cx="251.26403"
     inkscape:cy="363.16709"
     inkscape:window-x="175"
     inkscape:window-y="22"
     inkscape:current-layer="svg2" />
  <path
     style="fill:#d3d7cf;fill-opacity:1;fill-rule:evenodd;stroke:#000000;stroke-width:1px;stroke-linecap:butt;stroke-linejoin:miter;stroke-opacity:1"
     d="M 62.33192,76.732675 L 22.5527,90.326252 L 14.20787,493.93202 L 37.95599,506.4877 L 630.87982,596.9214 L 659.53948,597.18906 L 696.83513,541.53276 L 698.55021,134.15891 L 668.79252,121.75949 L 62.33192,76.732675 z "
     id="path7497"
     sodipodi:nodetypes="cccccccccc" />
  <path
     id="Top Vents"
     d="M 399.16644,205.75137 L 375.63384,203.70328 L 374.98464,198.05939 C 374.57124,194.4653 375.45354,191.98646 377.41394,191.23418 C 379.10714,190.58444 396.91044,191.54028 416.97684,193.35827 C 460.83404,197.33169 486.10968,197.71066 486.09268,199.42749 C 486.05248,203.47477 496.54133,213.47845 483.50243,214.4098 C 472.57933,215.19002 418.99824,207.47738 399.16644,205.75137 z M 310.26912,200.15732 C 277.6296,196.59772 269.61532,192.7711 265.54892,192.5299 C 264.70412,192.4798 268.24152,178.72459 271.95972,181.02255 C 273.05892,181.70194 283.01072,182.61496 294.07472,183.05149 C 327.86774,184.38481 365.26134,188.42553 367.75004,191.0128 C 371.48944,194.9002 367.46974,202.72467 361.87514,202.44851 C 359.30434,202.32159 329.98192,202.30718 310.26912,200.15732 z M 427.86004,187.95664 C 373.81164,182.80614 376.65784,183.47351 376.65784,175.95078 C 376.65784,172.19649 377.93484,169.29123 379.91984,168.52951 C 383.02014,167.33981 483.26454,175.29312 488.92154,177.17759 C 490.60254,177.73757 491.37124,180.57745 490.96964,184.74437 C 490.34214,191.25546 490.08224,191.42125 480.08634,191.68619 C 474.45414,191.8355 450.95234,190.15719 427.86004,187.95664 z M 212.81062,188.26213 C 204.36232,187.43141 188.69442,186.12915 177.99312,185.36822 C 150.58692,183.41945 149.31982,183.04854 149.31982,176.97482 C 149.31982,174.14482 150.61972,171.33054 152.20842,170.72089 C 156.43492,169.09906 250.28122,178.10947 253.04902,180.40281 C 254.34072,181.47319 254.92452,184.15836 254.34612,186.36984 C 253.43352,189.85991 251.63642,190.34991 240.73302,190.08161 C 233.82412,189.91162 221.25902,189.09286 212.81062,188.26213 z M 320.59034,177.91527 C 298.07852,175.79474 278.58102,172.99991 276.96952,171.66252 C 275.36692,170.33245 274.33052,167.32028 274.66652,164.96881 C 275.16472,161.48219 276.97772,160.5674 284.49382,160.0104 C 292.66102,159.40514 324.04794,161.52897 358.84794,165.04166 L 370.73534,166.24157 L 370.11244,173.70794 C 369.63084,179.48089 368.56054,181.23956 365.39334,181.46198 C 363.14044,181.62022 342.97914,180.02418 320.59034,177.91527 z M 84.088617,177.58475 C 83.237617,176.73694 75.795817,175.19628 67.551317,174.16108 C 51.437017,172.13769 47.657917,170.12184 49.751417,164.66624 C 50.944017,161.5584 53.596217,161.34809 75.112517,162.65524 C 88.328517,163.45813 108.81892,165.18846 120.64662,166.50041 C 141.58372,168.82279 142.15152,169.02097 142.15152,174.006 L 142.15152,179.12622 L 125.90823,181.8988 C 110.36643,181.8988 84.939617,178.43255 84.088617,177.58475 z M 200.52212,166.79494 C 174.05052,164.17133 152.16162,161.95561 151.88002,161.8711 C 150.34432,161.4103 151.68382,149.47544 153.38952,148.42128 C 156.07792,146.75972 252.26862,155.43306 254.44462,157.53323 C 257.20952,160.20189 255.09172,170.86682 251.72432,171.23198 C 250.03472,171.41521 226.99362,169.41854 200.52212,166.79494 z M 440.14864,165.57954 C 383.85064,160.34291 379.87004,159.62223 379.14064,154.53428 C 378.81654,152.27321 379.73814,148.90982 381.18874,147.06009 C 383.62854,143.94899 387.74024,144.05879 436.05244,148.52525 C 464.77694,151.18082 489.48644,153.39215 490.96244,153.43933 C 492.80064,153.49808 493.44594,155.94493 493.01054,161.20544 C 492.21774,170.78474 494.27694,170.61436 440.14864,165.57954 z M 101.18972,158.38907 C 84.293017,156.82345 66.410217,154.85816 61.450317,154.02177 C 51.782517,152.39151 47.467517,148.08913 49.690417,142.29631 C 51.194417,138.37702 59.033517,138.57276 118.59852,144.01689 L 144.19962,146.35679 L 144.19962,153.5251 C 144.19962,162.35329 144.09752,162.36483 101.18972,158.38907 z M 328.12084,155.40251 C 278.83202,151.10465 278.34952,150.98911 278.34952,143.4845 C 278.34952,139.61781 279.57122,137.30053 281.93362,136.6864 C 287.52852,135.23199 370.76754,142.7194 372.91874,144.87057 C 375.31714,147.26899 373.01674,157.06338 369.81674,158.07802 C 368.51034,158.49225 349.74724,157.28827 328.12084,155.40251 z M 204.61832,144.87074 C 179.27322,142.61718 157.51312,139.95009 156.26262,138.94387 C 153.97422,137.10246 154.76262,127.57526 157.33492,125.98546 C 159.65612,124.5509 256.72182,133.27389 258.61102,135.08683 C 261.10942,137.48433 257.10932,148.34625 253.60272,148.68649 C 252.00642,148.84139 229.96342,147.12429 204.61832,144.87074 z M 93.762417,135.27541 C 69.237817,133.11682 54.426317,130.93212 52.288617,129.15803 C 48.591717,126.08981 47.860017,119.63128 50.990317,117.69667 C 53.038017,116.43112 131.09902,121.9122 141.77792,124.07134 C 148.62052,125.45483 150.48612,129.08632 147.35742,134.93225 C 144.69012,139.91617 146.36632,139.90544 93.762417,135.27541 z "
     style="fill:#2e3436;fill-opacity:1"
     sodipodi:nodetypes="cccssssccsssssccsssssccssssssccssscccsccsssscccccssssccsssssccsscccccssssccssssccssssc" />
  <path
     id="Bottom Vents"
     d="M 409.82133,519.13177 C 380.53363,515.04907 345.05053,509.94037 330.96993,507.77917 C 300.6247,503.12147 144.8217,481.14977 99.5357,475.14177 C 49.8324,468.54767 35.1325,464.92207 39.6767,460.37787 C 41.0093,459.04527 51.0497,459.77837 69.0819,462.52467 C 102.9125,467.67717 124.6407,470.64357 214.2288,482.34047 C 306.83664,494.43167 429.65303,510.89277 473.31213,517.06547 C 518.64283,523.47447 439.10903,523.21457 409.82133,519.13177 z M 593.12533,524.87647 C 589.18283,524.39367 555.08213,519.86787 517.34603,514.81907 C 479.61003,509.77027 442.28353,504.79797 434.39843,503.76967 C 426.51323,502.74127 387.80433,497.31277 348.37863,491.70637 C 308.95294,486.09987 259.1843,479.13247 237.7818,476.22317 C 216.3792,473.31397 192.8774,469.99527 185.5555,468.84837 C 178.2336,467.70147 145.6705,463.11747 113.1932,458.66157 C 51.9327,450.25677 38.093,447.60447 38.093,444.26897 C 38.093,441.47277 43.6832,441.77487 76.0387,446.31917 C 104.7794,450.35577 198.0537,462.41397 243.9261,468.02317 C 257.4434,469.67597 281.8669,472.84817 298.2004,475.07247 C 328.22123,479.16077 451.74963,495.68817 521.44223,504.94107 C 542.28153,507.70787 571.77403,511.42797 586.98113,513.20807 C 602.18813,514.98807 616.24313,517.30547 618.21443,518.35787 C 623.32713,521.08747 622.64283,524.22347 616.93443,524.22347 C 614.25913,524.22347 609.42043,524.56787 606.18193,524.98877 C 602.94343,525.40967 597.06793,525.35917 593.12533,524.87647 z M 528.61053,497.51937 C 497.06993,493.23467 459.74353,488.19507 445.66293,486.32027 C 431.58233,484.44547 394.71673,479.36697 363.73933,475.03467 C 332.76193,470.70237 289.4448,464.75027 267.4791,461.80777 C 245.5133,458.86527 208.1869,453.77227 184.5315,450.49017 C 160.876,447.20797 126.7753,442.60017 108.7521,440.25047 C 45.3007,431.97837 38.093,430.52127 38.093,425.96587 C 38.093,423.34007 42.8108,423.31417 56.2662,425.86587 C 62.0631,426.96527 81.7738,429.73147 100.0676,432.01297 C 118.3615,434.29447 147.6146,438.00217 165.0746,440.25227 C 182.5346,442.50237 215.7136,446.64227 238.8058,449.45207 C 261.898,452.26187 298.3028,456.86467 319.70543,459.68067 C 341.10793,462.49657 366.45303,465.76317 376.02783,466.93957 C 385.60273,468.11597 423.85073,473.14437 461.02363,478.11377 C 538.35803,488.45197 586.61203,494.66207 604.52323,496.58147 C 629.29393,499.23587 626.91553,505.86727 601.31773,505.51887 C 592.86933,505.40387 560.15113,501.80417 528.61053,497.51937 z M 590.05323,485.90247 C 585.54743,485.48077 561.12393,482.42127 535.77883,479.10347 C 483.82153,472.30207 481.77343,472.02857 398.55683,460.77927 C 365.32663,456.28717 317.40133,449.86677 292.0562,446.51177 C 266.7111,443.15677 228.9238,438.06737 208.0845,435.20217 C 187.2452,432.33697 144.8497,426.74267 113.8723,422.77037 C 45.8853,414.05217 45.3922,413.96767 40.7604,410.24087 C 37.4589,407.58447 38.3669,407.36497 49.3575,408.16197 C 56.1162,408.65207 87.452,412.33887 118.9926,416.35477 C 150.5331,420.37067 196.1544,426.03977 220.373,428.95287 C 244.5917,431.86587 281.9181,436.51587 303.3207,439.28617 C 362.83473,446.98957 532.01943,468.59657 575.81803,474.08757 C 597.27633,476.77777 616.40033,479.58027 618.31583,480.31537 C 623.95593,482.47967 622.34033,484.68427 614.11823,486.04327 C 606.40073,487.31887 605.10583,487.31137 590.05323,485.90247 z M 572.64443,464.68167 C 566.44903,463.74897 535.57403,459.68527 504.03343,455.65117 C 472.49293,451.61717 423.18513,445.14747 394.46063,441.27407 C 365.73623,437.40067 320.11503,431.41497 293.0802,427.97247 C 266.0454,424.52997 227.3365,419.43857 207.0604,416.65837 C 186.7844,413.87817 151.762,409.32067 129.233,406.53057 C 49.8005,396.69327 41.717,395.30447 39.0827,391.04197 C 37.5071,388.49267 35.3735,388.36307 74.8558,393.21527 C 111.6191,397.73327 153.9394,402.83177 210.1326,409.51267 C 259.5019,415.38227 326.62903,423.53787 346.33053,426.05997 C 355.34213,427.21367 384.37383,430.86207 410.84543,434.16767 C 542.00153,450.54537 617.88103,460.60127 619.94843,461.87897 C 627.51053,466.55267 597.05773,468.35697 572.64443,464.68167 z M 554.21163,443.10907 C 534.49883,440.41097 464.45413,431.23887 398.55683,422.72677 C 332.65953,414.21457 257.5458,404.49677 231.6375,401.13177 C 205.7292,397.76667 154.4213,391.40017 117.62,386.98387 C 57.0358,379.71357 33.6716,375.36357 39.1905,372.38177 C 40.2766,371.79507 62.8237,373.90347 89.2953,377.06717 C 115.7668,380.23097 157.7015,385.12447 182.4834,387.94177 C 207.2652,390.75907 246.435,395.35287 269.5272,398.15017 C 292.6194,400.94747 315.66043,403.72977 320.72943,404.33297 C 367.45013,409.89327 409.73413,415.07887 479.45643,423.79897 C 524.51433,429.43437 573.29933,435.49007 587.86743,437.25617 C 618.02493,440.91217 623.91713,442.86507 615.00903,446.25207 C 606.91083,449.33097 595.27603,448.72957 554.21163,443.10907 z M 546.01933,422.59157 C 515.35913,418.39367 188.0613,377.21947 84.8406,364.57517 C 66.0569,362.27417 48.085,359.30197 44.9028,357.97027 C 39.1431,355.55977 39.1391,355.54507 44.0228,354.70897 C 48.6569,353.91567 59.8323,355.10647 136.4013,364.55237 C 153.8613,366.70637 174.1374,368.97587 181.4593,369.59577 C 188.7812,370.21577 205.8316,372.06497 219.349,373.70527 C 232.8664,375.34557 264.2021,379.00367 288.984,381.83427 C 313.76593,384.66497 341.41513,387.90097 350.42673,389.02537 C 359.43833,390.14977 412.89343,396.60107 469.21593,403.36157 C 614.61973,420.81487 617.79013,421.22397 619.29693,422.73077 C 622.38803,425.82187 613.63343,427.88827 598.24563,427.69967 C 589.23403,427.58927 565.73213,425.29057 546.01933,422.59157 z M 514.27393,399.06217 C 479.35403,394.67847 405.62273,385.55187 350.42673,378.78077 C 295.2307,372.00957 235.3241,364.59437 217.3009,362.30237 C 199.2777,360.01037 165.177,355.87177 141.5216,353.10547 C 64.9535,344.15157 51.5082,342.29387 45.2613,339.80607 C 41.882,338.46017 40.1572,336.96857 41.4286,336.49127 C 42.6999,336.01407 72.1924,338.93087 106.9674,342.97297 C 141.7425,347.01517 183.0978,351.65237 198.8681,353.27777 C 252.8482,358.84147 424.80063,378.54447 501.98533,388.01017 C 515.50273,389.66797 546.76823,393.38947 571.46423,396.28017 C 596.16023,399.17097 617.14253,402.01607 618.09163,402.60267 C 619.04083,403.18927 619.28713,404.52717 618.63903,405.57577 C 616.29993,409.36047 576.54213,406.87907 514.27393,399.06217 z M 567.52423,385.85897 C 557.38623,384.38597 520.52063,379.90377 485.60063,375.89857 C 450.68073,371.89337 399.52973,365.84077 371.93173,362.44847 C 344.33363,359.05617 305.62484,354.42337 285.9119,352.15347 C 266.199,349.88347 227.951,345.32607 200.9162,342.02597 C 173.8814,338.72587 135.1725,334.08917 114.8964,331.72237 C 57.4334,325.01467 46.7287,323.28507 42.7878,320.07197 C 39.4808,317.37567 40.0634,317.18857 48.6679,318.18327 C 72.924,320.98747 173.2354,332.04757 199.8921,334.85697 C 216.2256,336.57827 237.4234,338.86677 246.9982,339.94247 C 297.5009,345.61597 468.45863,365.05007 489.69683,367.53187 C 503.21423,369.11147 535.91243,372.85867 562.35943,375.85897 C 588.80643,378.85927 612.76913,382.23437 615.60973,383.35927 C 620.51363,385.30117 620.56763,385.48927 616.67843,387.08307 C 610.77553,389.50197 588.83773,388.95567 567.52423,385.85897 z M 576.74063,367.39007 C 575.05093,366.96517 540.02863,362.86717 498.91323,358.28327 C 457.79783,353.69947 394.20463,346.35637 357.59503,341.96527 C 320.98543,337.57417 266.6086,331.12347 236.7577,327.63027 C 206.9068,324.13707 170.9628,319.91817 156.8822,318.25497 C 142.8016,316.59177 114.6916,313.37867 94.4155,311.11487 C 74.1394,308.85107 53.8633,305.91567 49.3575,304.59157 C 29.5192,298.76207 54.8232,300.49247 149.7139,311.45467 C 159.852,312.62587 185.1971,315.28967 206.0364,317.37437 C 247.4711,321.51937 399.52223,337.96027 443.61483,343.06317 C 484.79723,347.82937 518.11603,351.62097 560.35593,356.34827 C 612.43543,362.17667 618.80113,363.18507 618.22483,365.51577 C 617.74573,367.45377 583.20053,369.01457 576.74063,367.39007 z M 568.54823,347.08587 C 556.72053,345.55167 509.71693,340.11037 464.09573,334.99417 C 418.47453,329.87797 344.74333,321.48367 300.2485,316.34007 C 174.9118,301.85127 117.5439,295.34967 84.7595,291.91827 C 68.1842,290.18347 51.5947,287.35817 47.8939,285.63987 C 41.2179,282.54017 41.2696,282.52357 54.4777,283.52017 C 61.7997,284.07257 85.3015,286.41197 106.704,288.71877 C 128.1066,291.02557 164.0505,294.74377 186.5795,296.98137 C 233.9538,301.68677 319.89063,310.81487 466.14383,326.67637 C 628.52563,344.28707 621.22753,343.33377 618.04433,346.51697 C 614.75743,349.80387 591.55743,350.07057 568.54823,347.08587 z M 531.68263,323.31187 C 504.08463,320.11237 452.01203,314.25427 415.96563,310.29387 C 379.91923,306.33337 313.10033,298.88257 267.4791,293.73627 C 221.8579,288.59007 172.0893,283.05357 156.8822,281.43297 C 141.6752,279.81237 115.8692,277.06787 99.5357,275.33397 C 62.6013,271.41327 44.2373,268.29107 44.2373,265.93229 C 44.2373,263.49429 47.2461,263.61349 74.8434,267.14399 C 97.2327,270.00827 138.8578,274.30747 184.5315,278.47287 C 215.1448,281.26477 337.15323,293.83487 423.64863,303.10817 C 445.33133,305.43287 470.90563,308.14357 480.48043,309.13217 C 548.38213,316.14257 616.81793,323.98807 618.35523,324.93817 C 619.36313,325.56117 618.93743,326.86307 617.40903,327.83147 C 612.62013,330.86597 583.68273,329.34027 531.68263,323.31187 z M 586.98113,309.81457 C 576.43563,308.59367 437.63263,293.32687 414.94153,290.89227 C 404.24033,289.74397 352.62843,284.20877 300.2485,278.59167 C 247.8686,272.97457 197.6392,267.43689 188.6276,266.28569 C 179.616,265.13449 167.1739,263.69459 160.9784,263.08589 C 69.6901,254.11739 40.7641,250.07309 44.5739,246.81089 C 44.952,246.48709 84.4311,250.13099 132.3052,254.90829 C 180.1793,259.68569 235.4777,265.11399 255.1905,266.97139 C 274.9034,268.82867 299.3269,271.25087 309.46494,272.35397 C 319.60303,273.45707 342.18323,275.77347 359.64313,277.50157 C 427.45923,284.21357 513.38703,293.04207 537.82693,295.80877 C 551.90753,297.40267 574.48773,299.72847 588.00513,300.97717 C 615.05313,303.47577 621.03413,304.67897 618.42063,307.09597 C 616.17903,309.16897 596.27263,310.89027 586.98113,309.81457 z M 522.46623,283.44267 C 461.66303,276.53877 423.01303,272.41377 368.85953,267.04839 C 324.95823,262.69879 304.88564,260.57539 274.6474,257.08209 C 223.4502,251.16739 133.038,241.61489 98.5117,238.47259 C 63.1918,235.25809 46.2854,232.21869 46.2854,229.08359 C 46.2854,228.13169 48.8199,227.75809 51.9176,228.25329 C 65.9546,230.49719 211.7477,244.52979 275.6714,249.78959 C 290.8785,251.04089 324.51843,254.31579 350.42673,257.06729 C 376.33503,259.81879 411.35743,263.44769 428.25413,265.13139 C 445.15093,266.81509 463.58373,268.67747 469.21593,269.26997 C 474.84813,269.86247 507.56643,273.08757 541.92313,276.43687 C 612.10443,283.27867 619.75053,284.27577 619.75053,286.58627 C 619.75053,292.48177 595.04453,291.68347 522.46623,283.44267 z M 606.43793,240.47819 C 604.18503,240.12409 584.36973,238.31459 562.40403,236.45709 C 540.43823,234.59949 520.25763,232.18719 517.55813,231.09639 L 512.64993,229.11309 L 513.86743,195.92439 C 515.28513,157.27559 517.30423,147.97758 524.68103,146.12608 C 527.48773,145.42168 553.43323,146.78048 582.33783,149.14558 C 621.45243,152.34619 635.66403,154.21849 637.91273,156.46719 C 640.57583,159.13029 640.49003,162.59549 637.18913,185.68919 C 635.12943,200.09949 631.44713,218.34129 629.00613,226.22649 C 624.67853,240.20549 624.39283,240.56999 617.55103,240.84259 C 613.69173,240.99629 608.69083,240.83229 606.43793,240.47819 z "
     style="fill:#888a85;fill-opacity:1"
     sodipodi:nodetypes="cssssssscsssssssssssssssccsssssssssssssssccsssssssssssssccsssssssssssccsssssssssssccsssssssscssccsssssssssssccsssssssssssssccsssssssssssccsssssssssccsssssssssssccssssssssssssccsssssssssssccscccssssssc" />
  <path
     style="fill:none;fill-opacity:1;fill-rule:evenodd;stroke:#000000;stroke-width:1px;stroke-linecap:butt;stroke-linejoin:miter;stroke-opacity:1"
     d="M 624.46277,587.51037 L 28.8511,497.57481 C 15.9258,494.62881 18.1315,466.46441 17.0277,443.81593 L 24.5577,109.19731 C 25.2595,90.023817 51.563,80.603577 74.9346,84.943707 L 679.24499,128.29033 C 687.89168,128.65137 690.98715,138.17191 689.19592,155.75549 L 685.73405,552.66255 L 673.00368,568.52455 L 660.0874,581.77184 L 660.31354,586.95273 L 655.14965,589.92565 L 624.46277,587.51037 z "
     id="Front Face"
     sodipodi:nodetypes="ccccccccccccc" />
  <path
     style="fill:#c0c0c0;fill-opacity:1;fill-rule:evenodd;stroke:#808080;stroke-width:2;stroke-linecap:butt;stroke-linejoin:miter;stroke-miterlimit:4;stroke-dasharray:none;stroke-opacity:1"
     d="M 742.88179,122.68435 L 820.10786,78.482002 L 818.1182,447.51773 L 734.17848,538.54194 L 742.88179,122.68435 z "
     id="Right Side"
     sodipodi:nodetypes="ccccc" />
  <path
     style="fill:#888a85;fill-opacity:1;fill-rule:evenodd;stroke:#000000;stroke-width:1px;stroke-linecap:butt;stroke-linejoin:miter;stroke-opacity:1"
     d="M 119.428,50.310108 L 236.459,13.562848 L 822.63793,49.705814 L 826.3347,443.987 L 725.33475,550.40416 L 727.24027,102.10035 L 119.428,50.310108 z "
     id="Back"
     sodipodi:nodetypes="ccccccc" />
  <path
     id="Control Plate base"
     d="M 517.26531,209.45686 C 517.26531,209.45686 518.88504,171.22763 520.78033,165.41718 C 521.08909,164.47062 516.39983,150.69628 528.28629,150.46609 C 560.37363,149.84468 612.52117,158.23049 615.40196,157.82465 C 619.68657,157.22103 644.55958,161.29054 634.68765,171.55602 L 631.56115,209.36146 L 621.79717,221.43394 L 517.26531,209.45686 z "
     style="fill:#4e9a06;fill-opacity:1"
     sodipodi:nodetypes="cssssccc" />
  <path
     id="Front Panel back"
     d="M 379.7327,199.01043 C 379.7327,196.28223 384.12071,192.70764 384.96554,192.19634 C 386.63074,191.18864 469.64117,200.30623 471.47509,200.19734 C 486.29347,199.31753 479.12923,208.8034 476.43513,211.047 C 473.03157,213.8815 379.7327,205.00954 379.7327,199.01043 z M 378.08402,176.45733 C 378.08402,173.23403 378.95974,170.05563 380.03009,169.39413 C 381.75952,168.32533 397.31623,169.58013 468.01093,176.49083 C 478.60823,177.52673 488.17193,179.26743 489.26353,180.35903 C 490.35513,181.45063 490.65303,184.71543 489.92553,187.61394 C 488.37833,193.77844 378.08402,182.14823 378.08402,176.45733 z M 274.94633,182.54785 L 347.29327,188.12127 C 355.35549,190.43369 368.68531,186.45022 358.42795,200.21237 C 326.86051,197.15438 296.72607,197.28435 269.66295,189.72204 M 590.06133,182.25763 C 579.92323,181.22223 570.95143,179.70163 570.12393,178.87843 C 569.29643,178.05523 569.33903,173.26613 570.21873,168.23613 L 571.81803,159.09063 L 589.42093,159.67133 C 599.10253,159.99073 611.04123,160.93293 615.95133,161.76513 C 624.49613,163.21323 624.90643,163.61143 625.52303,171.05573 C 626.69433,185.19823 624.77943,185.80313 590.06133,182.25763 z M 581.97923,172.22473 C 584.08983,168.80973 579.34293,164.89363 576.51753,167.71893 C 574.15423,170.08233 575.63333,174.45133 578.79683,174.45133 C 579.79033,174.45133 581.22233,173.44933 581.97923,172.22473 z M 90.376219,176.54124 C 68.536612,175.20754 72.09542,172.09344 63.29902,169.32244 C 61.21972,168.66754 52.507873,168.51153 52.896573,166.59603 C 53.726773,162.50413 56.759973,162.47933 103.10508,166.18593 C 121.39718,167.64893 137.80648,169.90103 139.57008,171.19063 C 143.54478,174.09703 141.42958,180.75103 136.70238,180.21173 C 134.85158,180.00063 103.33042,177.33224 90.376219,176.54124 z M 321.36214,173.59676 C 281.84035,169.94006 277.72768,173.53153 277.72768,167.17973 C 277.72768,164.34963 278.89758,161.58523 280.32748,161.03653 C 281.75748,160.48783 302.26398,161.66883 325.89749,163.66093 L 368.86761,167.28303 L 368.86761,173.42723 C 368.86761,179.39743 368.57734,179.57963 358.62717,179.85373 C 352.99492,180.00893 338.25888,175.16006 321.36214,173.59676 z M 196.82808,166.18503 C 177.67849,164.13613 159.93689,162.39293 157.40239,162.31133 C 153.68059,162.19133 152.79419,160.98093 152.79419,156.01853 C 152.79419,150.02003 153.03439,149.87423 162.92069,149.87423 C 173.57469,149.87423 237.06038,155.29033 248.66718,157.18953 C 254.60628,158.16123 255.36918,158.98393 254.81148,163.81503 C 254.21088,169.01703 253.53338,169.34753 242.91008,169.62073 C 236.71468,169.78003 215.97778,168.23403 196.82808,166.18503 z M 385.4648,158.17314 C 381.95822,156.93744 383.14559,148.88393 386.72147,147.51183 C 388.31241,146.90133 409.73034,147.61884 438.83515,150.23603 L 491.75303,154.99443 L 491.75303,161.13873 C 491.75303,167.25363 491.69413,167.28423 479.46443,167.54763 C 472.70573,167.69323 386.87286,158.66934 385.4648,158.17314 z M 91.87624,152.86746 C 74.41634,151.19746 54.357873,152.59293 52.949773,151.45023 C 49.532273,148.67683 49.690173,142.38854 53.211373,141.03734 C 56.432673,139.80124 125.54338,145.14454 136.40948,147.46984 C 142.24588,148.71883 143.57778,149.94093 143.57778,154.04723 C 143.57778,158.81763 142.91268,159.10443 131.28918,159.34563 C 124.53048,159.48583 109.33625,154.53746 91.87624,152.86746 z M 318.98897,151.02476 C 277.4048,147.40266 291.79029,151.92912 283.47255,146.68423 C 281.16484,145.22906 285.38275,139.26614 286.58785,138.52134 C 288.58265,137.28844 326.61909,141.29743 354.10605,144.41703 C 364.96875,145.64983 370.9157,144.99014 370.9157,150.90693 C 370.9157,156.65533 370.39866,157.05933 362.72334,157.30923 C 358.21755,157.45583 337.01216,152.59466 318.98897,151.02476 z M 196.82808,143.63484 C 176.55199,141.60074 168.05242,135.24737 157.40239,139.78514 C 153.85569,141.29632 162.60563,130.40173 166.58173,128.87593 C 169.80813,127.63783 239.35928,132.42544 251.73238,134.80774 C 256.53558,135.73254 257.37868,136.81124 256.85258,141.35844 C 256.26028,146.47704 255.55008,146.81794 244.95818,147.06764 C 238.76278,147.21364 217.10418,145.66894 196.82808,143.63484 z M 98.544373,135.00974 C 74.902473,132.87804 54.395973,130.16864 52.974373,128.98884 C 51.552773,127.80904 53.162253,125.11324 53.162253,122.99834 C 53.162253,118.14044 58.253973,118.03044 106.71218,122.21004 C 125.86178,123.86174 136.21233,126.15623 137.62043,126.17933 C 139.06893,126.20313 146.64988,127.86994 146.64988,131.22234 C 146.64988,134.48114 145.49788,137.53854 144.08978,138.01644 C 142.68168,138.49444 122.18628,137.14144 98.544373,135.00974 z M 166.15329,181.40429 C 156.01519,180.63289 150.5131,176.8502 151.358,176.3422 C 152.2028,175.8341 160.728,173.38362 170.3028,174.28522 C 179.87759,175.18692 215.86757,176.93642 229.94817,178.17302 C 267.74157,181.49212 246.13034,182.76501 245.37214,188.09301"
     style="fill:#555753;fill-opacity:1"
     sodipodi:nodetypes="csssscssssscccccscccssccssccsssssccsscccsccssssssccscccsscsssssccsssssccsssssccssssssccssss" />
  <path
     style="fill:#555753;fill-opacity:1;fill-rule:evenodd;stroke:#d0d0d0;stroke-width:1px;stroke-linecap:butt;stroke-linejoin:miter;stroke-opacity:1"
     d="M 139.0855,41.766568 L 229.6727,15.737578 C 237.8593,13.282468 255.6825,13.236508 280.5622,14.954658 L 803.06108,49.582478 C 808.68835,48.342468 819.46439,48.894848 819.69544,56.802448 L 820.24696,75.677688 L 738.82375,119.2649 C 740.92059,99.175028 723.9399,81.138598 700.70518,82.850488 L 139.0855,41.766568 z "
     id="Top"
     sodipodi:nodetypes="ccccscccc" />
  <path
     style="fill:#eeeeec;fill-opacity:1;fill-rule:evenodd;stroke:#d0d0d0;stroke-width:1px;stroke-linecap:butt;stroke-linejoin:miter;stroke-opacity:1"
     d="M 83.8171,36.417847 L 703.79629,80.433987 C 720.84986,81.837797 737.91189,73.752577 735.20877,122.40624 L 741.11335,570.92726 C 746.98474,612.26039 734.93168,617.91911 694.84669,613.29586 L 39.3259,514.38055 C 16.5715,513.89487 8.7826,500.0336 13.8174,492.38012 C 4.2143,354.97938 15.181,192.27246 22.0666,48.427987 C 20.8367,44.174927 39.527,27.467537 83.8171,36.417847 z M 625.07829,587.42122 L 29.4666,497.48566 C 16.5413,494.53966 18.747,466.37526 17.6432,443.72678 L 25.1732,109.10816 C 25.875,89.934667 52.1785,80.514427 75.5501,84.854557 L 679.86051,128.20118 C 688.5072,128.56222 691.60267,138.08276 689.81144,155.66634 L 686.34957,552.5734 L 673.6192,568.4354 L 660.70292,581.68269 L 660.92906,586.86358 L 655.76517,589.8365 L 625.07829,587.42122 z "
     id="Front"
     sodipodi:nodetypes="cccccccccccccccccccccc" />
</svg>
